<svg xmlns="http://www.w3.org/2000/svg" version="1.1" viewBox="143.16 143.15 464.7 465.7">
 <g fill="#1976d2">
  <path d="m588.12 472.69c-10.852 0-19.734 8.8789-19.734 19.734v76.957h-76.957c-10.852 0-19.734 8.8789-19.734 19.734 0 10.852 8.8789 19.734 19.734 19.734h96.688c10.852 0 19.734-8.8789 19.734-19.734v-96.688c0.003906-10.859-8.875-19.738-19.73-19.738z"/>
  <path d="m260.57 569.38h-77.945v-76.957c0-10.852-8.8789-19.734-19.734-19.734-10.852 0-19.734 8.8789-19.734 19.734v96.688c0 10.852 8.8789 19.734 19.734 19.734h96.688c10.852 0 19.734-8.8789 19.734-19.734 0.003906-10.848-8.875-19.73-18.742-19.73z"/>
  <path d="m163.88 279.31c10.852 0 19.734-8.8789 19.734-19.734v-76.957h76.957c10.852 0 19.734-8.8789 19.734-19.734 0-10.852-8.8789-19.734-19.734-19.734l-96.691 0.003906c-10.852 0-19.734 8.8789-19.734 19.734v96.688c0.003906 10.855 8.8828 19.734 19.734 19.734z"/>
  <path d="m588.12 144.14h-96.688c-10.852 0-19.734 8.8789-19.734 19.734 0 10.852 8.8789 19.734 19.734 19.734h76.957v76.957c0 10.852 8.8789 19.734 19.734 19.734 10.852 0 19.734-8.8789 19.734-19.734l-0.003906-96.695c0-10.852-8.8789-19.73-19.734-19.73z"/>
  <path d="m376 353.31c39.465 0 72.023-32.559 72.023-72.023s-32.559-72.023-72.023-72.023-72.023 32.559-72.023 72.023 32.559 72.023 72.023 72.023z"/>
  <path d="m488.48 542.74c10.852 0 19.734-8.8789 19.734-19.734 0-73.012-59.199-132.21-132.21-132.21-73.012 0-132.21 59.199-132.21 132.21 0 10.852 8.8789 19.734 19.734 19.734 10.852 0 19.734-8.8789 19.734-19.734 0-51.305 42.426-93.73 93.73-93.73 51.305 0 93.73 42.426 93.73 93.73-0.99609 10.855 7.8828 19.734 17.75 19.734z"/>
 </g>
</svg>